<?xml version="1.0" encoding="UTF-8"?>
<svg id="Capa_2" data-name="Capa 2" xmlns="http://www.w3.org/2000/svg" xmlns:xlink="http://www.w3.org/1999/xlink" viewBox="0 0 29.32 37.72">
  <defs>
    <style>
      .cls-1 {
        fill: url(#linear-gradient-2);
      }

      .cls-2 {
        fill: url(#linear-gradient);
      }
    </style>
    <linearGradient id="linear-gradient" x1="0" y1="18.86" x2="29.32" y2="18.86" gradientUnits="userSpaceOnUse">
      <stop offset="0" stop-color="#fbe18a"/>
      <stop offset=".21" stop-color="#fcbb45"/>
      <stop offset=".38" stop-color="#f75274"/>
      <stop offset=".52" stop-color="#d53692"/>
      <stop offset=".74" stop-color="#8f39ce"/>
      <stop offset="1" stop-color="#5b4fe9"/>
    </linearGradient>
    <linearGradient id="linear-gradient-2" x1="8.06" y1="14.02" x2="21.26" y2="14.02" xlink:href="#linear-gradient"/>
  </defs>
  <g id="ELEMENTS">
    <g>
      <path class="cls-2" d="m14.66,37.72h0c-.36,0-.71-.15-.96-.42-.56-.6-13.7-14.84-13.7-22.64S6.58,0,14.66,0s14.66,6.58,14.66,14.66-13.14,22.03-13.7,22.64c-.25.27-.6.42-.96.42Zm0-35.09c-6.64,0-12.04,5.4-12.04,12.04,0,5.18,7.96,15.2,12.04,19.79,4.08-4.59,12.04-14.62,12.04-19.79,0-6.64-5.4-12.04-12.04-12.04Z"/>
      <path class="cls-1" d="m14.66,20.62c-3.64,0-6.6-2.96-6.6-6.6s2.96-6.6,6.6-6.6,6.6,2.96,6.6,6.6-2.96,6.6-6.6,6.6Zm0-10.58c-2.19,0-3.98,1.78-3.98,3.98s1.78,3.98,3.98,3.98,3.98-1.78,3.98-3.98-1.78-3.98-3.98-3.98Z"/>
    </g>
  </g>
</svg>