<?xml version="1.0" encoding="UTF-8"?>
<svg id="Capa_2" data-name="Capa 2" xmlns="http://www.w3.org/2000/svg" xmlns:xlink="http://www.w3.org/1999/xlink" viewBox="0 0 32.65 36.9">
  <defs>
    <style>
      .cls-1 {
        fill: url(#linear-gradient-2);
      }

      .cls-1, .cls-2, .cls-3 {
        fill-rule: evenodd;
      }

      .cls-2 {
        fill: url(#linear-gradient);
      }
    </style>
    <linearGradient id="linear-gradient" x1="1.78" y1="18.45" x2="30.88" y2="18.45" gradientUnits="userSpaceOnUse">
      <stop offset="0" stop-color="#fbe18a"/>
      <stop offset=".21" stop-color="#fcbb45"/>
      <stop offset=".38" stop-color="#f75274"/>
      <stop offset=".52" stop-color="#d53692"/>
      <stop offset=".74" stop-color="#8f39ce"/>
      <stop offset="1" stop-color="#5b4fe9"/>
    </linearGradient>
    <linearGradient id="linear-gradient-2" x1="0" y1="16.76" y2="16.76" xlink:href="#linear-gradient"/>
  </defs>
  <g id="ELEMENTS">
    <g>
      <path class="cls-3" d="m24.2,13.32c2.38,1.7,5.3,2.7,8.45,2.7v-6.06c-.6,0-1.19-.06-1.78-.19v4.77c-3.15,0-6.07-1-8.45-2.7v12.37c0,6.19-5.02,11.21-11.21,11.21-2.31,0-4.46-.7-6.24-1.9,2.04,2.08,4.88,3.37,8.02,3.37,6.19,0,11.21-5.02,11.21-11.21v-12.37h0Zm2.19-6.12c-1.22-1.33-2.02-3.05-2.19-4.95v-.78h-1.68c.42,2.41,1.87,4.48,3.87,5.73h0ZM8.89,28.78c-.68-.89-1.05-1.98-1.05-3.1,0-2.83,2.3-5.13,5.13-5.13.53,0,1.05.08,1.56.24v-6.2c-.59-.08-1.18-.11-1.77-.1v4.82c-.5-.16-1.03-.24-1.56-.24-2.83,0-5.13,2.3-5.13,5.13,0,2,1.15,3.73,2.82,4.58Z"/>
      <path class="cls-2" d="m22.42,11.84c2.38,1.7,5.3,2.7,8.45,2.7v-4.77c-1.76-.37-3.32-1.29-4.49-2.57-2-1.25-3.45-3.31-3.87-5.73h-4.42v24.22c-.01,2.82-2.3,5.11-5.13,5.11-1.67,0-3.15-.79-4.08-2.02-1.67-.84-2.82-2.58-2.82-4.58,0-2.83,2.3-5.13,5.13-5.13.54,0,1.07.08,1.56.24v-4.82c-6.08.13-10.98,5.09-10.98,11.2,0,3.05,1.22,5.81,3.2,7.84,1.78,1.2,3.93,1.9,6.24,1.9,6.19,0,11.21-5.02,11.21-11.21v-12.37Z"/>
      <path class="cls-1" d="m30.88,9.77v-1.29c-1.59,0-3.14-.44-4.49-1.28,1.19,1.3,2.76,2.2,4.49,2.57ZM22.52,1.48c-.04-.23-.07-.46-.09-.7v-.78h-6.1v24.22c0,2.82-2.3,5.11-5.13,5.11-.83,0-1.61-.2-2.31-.55.94,1.23,2.42,2.02,4.08,2.02,2.83,0,5.12-2.29,5.13-5.11V1.48h4.42Zm-9.77,13.01v-1.37c-.51-.07-1.02-.1-1.54-.1C5.02,13.01,0,18.03,0,24.22c0,3.88,1.97,7.3,4.97,9.31-1.98-2.02-3.2-4.79-3.2-7.84,0-6.11,4.89-11.08,10.98-11.2h0Z"/>
    </g>
  </g>
</svg>