<?xml version="1.0" encoding="UTF-8"?>
<svg id="Capa_2" data-name="Capa 2" xmlns="http://www.w3.org/2000/svg" xmlns:xlink="http://www.w3.org/1999/xlink" viewBox="0 0 38 29.85">
  <defs>
    <style>
      .cls-1 {
        fill: url(#linear-gradient);
      }
    </style>
    <linearGradient id="linear-gradient" x1="0" y1="14.93" x2="38" y2="14.93" gradientUnits="userSpaceOnUse">
      <stop offset="0" stop-color="#fbe18a"/>
      <stop offset=".21" stop-color="#fcbb45"/>
      <stop offset=".38" stop-color="#f75274"/>
      <stop offset=".52" stop-color="#d53692"/>
      <stop offset=".74" stop-color="#8f39ce"/>
      <stop offset="1" stop-color="#5b4fe9"/>
    </linearGradient>
  </defs>
  <g id="ELEMENTS">
    <path class="cls-1" d="m32.52,0H5.49C2.46,0,0,2.46,0,5.49v18.88c0,3.03,2.46,5.49,5.49,5.49h27.03c3.03,0,5.49-2.46,5.49-5.49V5.49c0-3.03-2.46-5.49-5.49-5.49Zm0,2.62c.22,0,.44.03.65.08l-11.4,12.94c-.7.79-1.71,1.25-2.76,1.25s-2.06-.45-2.76-1.25L4.84,2.7c.21-.05.43-.08.65-.08h27.03Zm2.86,21.75c0,1.58-1.28,2.86-2.86,2.86H5.49c-1.58,0-2.86-1.28-2.86-2.86V5.49c0-.38.08-.75.22-1.09l11.43,12.97c1.2,1.36,2.92,2.14,4.73,2.14s3.53-.78,4.73-2.14l11.43-12.97c.14.33.21.7.21,1.09v18.88Z"/>
  </g>
</svg>